<?xml version="1.0" encoding="UTF-8"?><svg xmlns="http://www.w3.org/2000/svg" viewBox="0 0 3630 3636.48"><defs><style>.d{stroke-width:29.74px;}.d,.e,.f,.g,.h,.i,.j{stroke-miterlimit:10;}.d,.g{fill:#feffde;stroke:#feffde;}.e,.f,.h,.i{stroke:#52734d;}.e,.f,.i,.j{fill:none;}.e,.j{stroke-width:15.45px;}.f{stroke-width:26.02px;}.g{stroke-width:30px;}.h{fill:#52734d;font-family:Consolas, Consolas;font-size:371.01px;letter-spacing:.3em;stroke-width:1.92px;}.i{stroke-width:114.33px;}.j{stroke:#000;}</style></defs><g id="a"><circle class="d" cx="1769.73" cy="1796.57" r="1609.51"/></g><g id="b"><rect class="g" x="15" y="15" width="3600" height="3606.48" rx="234.78" ry="234.78"/></g><g id="c"><g><text class="h" transform="translate(931.38 2332.18)"><tspan x="0" y="0">TIPPY</tspan></text><g><path class="i" d="M2930.39,1462.43c11.62-2.25,23.56-3.42,35.73-3.42h204.01c120,0,217.27,113.82,217.27,254.23v137.38c0,140.41-97.28,254.23-217.27,254.23h-204.01c-11.78,0-23.33-1.1-34.6-3.21"/><path class="i" d="M478.85,1345.26v865.36c0,418.42,289.89,757.62,647.49,757.62h1190.79c357.6,0,647.49-339.2,647.49-757.62v-865.36"/><path class="f" d="M498.02,1656.96c152.73,0,152.73,64.02,305.45,64.02s152.73-64.02,305.46-64.02,152.73,64.02,305.46,64.02,152.73-64.02,305.45-64.02,152.73,64.02,305.45,64.02,152.73-64.02,305.46-64.02,152.73,64.02,305.46,64.02,152.73-64.02,305.46-64.02"/><g><path class="j" d="M1450.57,546.74c0,133.09-91.46,133.09-91.46,266.17,0,133.09,91.46,133.09,91.46,266.17s-91.46,133.09-91.46,266.17"/><path class="e" d="M1450.57,546.74c0,133.09-91.46,133.09-91.46,266.17,0,133.09,91.46,133.09,91.46,266.17s-91.46,133.09-91.46,266.17"/></g><g><path class="j" d="M2021.74,546.74c0,133.09-91.46,133.09-91.46,266.17,0,133.09,91.46,133.09,91.46,266.17s-91.46,133.09-91.46,266.17"/><path class="e" d="M2021.74,546.74c0,133.09-91.46,133.09-91.46,266.17,0,133.09,91.46,133.09,91.46,266.17s-91.46,133.09-91.46,266.17"/></g><path class="f" d="M498.02,1523.88c152.73,0,152.73,64.02,305.45,64.02s152.73-64.02,305.46-64.02,152.73,64.02,305.46,64.02,152.73-64.02,305.45-64.02,152.73,64.02,305.45,64.02,152.73-64.02,305.46-64.02,152.73,64.02,305.46,64.02,152.73-64.02,305.46-64.02"/><path class="f" d="M498.02,1590.42c152.73,0,152.73,64.02,305.45,64.02s152.73-64.02,305.46-64.02,152.73,64.02,305.46,64.02,152.73-64.02,305.45-64.02,152.73,64.02,305.45,64.02,152.73-64.02,305.46-64.02,152.73,64.02,305.46,64.02,152.73-64.02,305.46-64.02"/><text/></g><text/></g></g></svg>